inDegrees=no
num_controls=7
num_derivatives=13
num_iterations=84
num_multipliers=7
num_parameters=0
num_slacks=7
num_states=26
objective=0.345990
objective_accelerations=0.031895
objective_balance=0.002018
objective_effort=0.061645
objective_height=0.245645
objective_ligament=0.004787
solver_duration=955.548940
status=Solve_Succeeded
success=true
DataType=double
version=3
OpenSimVersion=4.5
endheader
time	/jointset/ground_pelvis/pelvis_tilt/value	/jointset/ground_pelvis/pelvis_tx/value	/jointset/ground_pelvis/pelvis_ty/value	/jointset/hip_r/hip_flexion_r/value	/jointset/hip_r/hip_adduction_r/value	/jointset/hip_r/hip_rotation_r/value	/jointset/back/lumbar_extension/value	/jointset/patellofemoral_r/patellar_flexion_r/value	/jointset/knee_r/knee_flexion_r/value	/jointset/knee_r/knee_adduction_r/value	/jointset/knee_r/knee_rotation_r/value	/jointset/ankle_r/ankle_angle_r/value	/jointset/subtalar_r/subtalar_angle_r/value	/jointset/ground_pelvis/pelvis_tilt/speed	/jointset/ground_pelvis/pelvis_tx/speed	/jointset/ground_pelvis/pelvis_ty/speed	/jointset/hip_r/hip_flexion_r/speed	/jointset/hip_r/hip_adduction_r/speed	/jointset/hip_r/hip_rotation_r/speed	/jointset/back/lumbar_extension/speed	/jointset/patellofemoral_r/patellar_flexion_r/speed	/jointset/knee_r/knee_flexion_r/speed	/jointset/knee_r/knee_adduction_r/speed	/jointset/knee_r/knee_rotation_r/speed	/jointset/ankle_r/ankle_angle_r/speed	/jointset/subtalar_r/subtalar_angle_r/speed	/forceset/tau_hip_flexion_r	/forceset/tau_hip_adduction_r	/forceset/tau_hip_rotation_r	/forceset/tau_knee_flexion_r	/forceset/tau_ankle_angle_r	/forceset/tau_subtalar_angle_r	/forceset/tau_lumbar_extension	lambda_cid13_p0	lambda_cid14_p0	lambda_cid14_p1	lambda_cid14_p2	lambda_cid14_p3	lambda_cid14_p4	lambda_cid14_p5	/jointset/ground_pelvis/pelvis_tilt/accel	/jointset/ground_pelvis/pelvis_tx/accel	/jointset/ground_pelvis/pelvis_ty/accel	/jointset/hip_r/hip_flexion_r/accel	/jointset/hip_r/hip_adduction_r/accel	/jointset/hip_r/hip_rotation_r/accel	/jointset/back/lumbar_extension/accel	/jointset/patellofemoral_r/patellar_flexion_r/accel	/jointset/knee_r/knee_flexion_r/accel	/jointset/knee_r/knee_adduction_r/accel	/jointset/knee_r/knee_rotation_r/accel	/jointset/ankle_r/ankle_angle_r/accel	/jointset/subtalar_r/subtalar_angle_r/accel	gamma_cid13_p0	gamma_cid14_p0	gamma_cid14_p1	gamma_cid14_p2	gamma_cid14_p3	gamma_cid14_p4	gamma_cid14_p5
1	-0.2177236437129381	-0.04668192819492553	0.3561722932736596	2.181650135912841	-0.2220191924523191	0.1287795449217471	-0.7853797788128014	2.181653175964533	2.181653175964556	-0.1744864921663783	0.1726479461171805	0.3527978778655432	0.1594477234161104	0.02481323294194029	-0.007804120113365682	-0.002813659103006124	1.048219595803072e-05	0.0006966047479745497	-0.00088721901085311	2.21258473027907e-05	2.082051607140632e-05	2.082051607152277e-05	0.0001776684068714089	0.003945719908778618	-0.02612840944433692	-0.01057955335910619	-0.2515724868061077	-0.03647120965818982	-0.01617129727282116	-0.4312653551222846	0.09168274509462766	-0.0197315141134931	0.2805916672833919	-0.0262804049297528	-17.40449720309931	-15.38684034241022	7.181311855545345	-2.387893243893486	-662.9214422814715	67.18659650641197	-0.07766818770101463	0.02525073740755166	0.004703618400133834	0.003837043812611058	0.03131585988872426	0.177612572007248	0.01410264283149653	0.007952283961267131	0.007952283961267076	0.1277984702616476	0.003804196167721748	0.09100856296321656	0.08970009251659544	-2.453094253032179e-11	-3.284335926873655e-11	-2.683412883588536e-10	1.557235003255171e-10	2.237911412451443e-11	4.576383293127983e-11	-5.589387019774377e-10
1.01	-0.2174792992798189	-0.04675876315313584	0.3561444250877935	2.181650320818227	-0.2220106454693103	0.1287795114128044	-0.7853791275678416	2.181653654168694	2.181653654168732	-0.174478326540842	0.1726875762046111	0.3525410205618928	0.1593463813110206	0.02406523118104447	-0.007568368215474718	-0.002756697452824024	1.493005771095809e-05	0.001015203969460666	0.0008503760938129408	8.066251198419455e-05	6.294968670065874e-05	6.294968670094098e-05	0.001431212905608063	0.003963918049790668	-0.02525455797651851	-0.009689558069808743	-0.251443388068829	-0.03654668782835714	-0.0161717845133448	-0.4313776998993989	0.09176753448821443	-0.0197060266455705	0.2804641024314349	-0.02628429994619054	-17.37910049821084	-15.36066984112493	7.164969542576216	-2.233949806910585	-662.913558550087	67.27191911361864	-0.07192952611820723	0.02191293972322981	0.006684529142508298	-0.002986648574777927	0.03249386825388305	0.1673118122923102	-0.00238991677578343	0.0005626269344220086	0.0005626269344260061	0.1204958666805208	-0.001629306582934939	0.08384747217852259	0.08854562576413826	5.959682429342451e-11	9.512798700512208e-11	-5.464648323252473e-10	2.396708116718738e-10	1.328673811145981e-10	-8.671538922322581e-12	-1.109338576245015e-09
1.02	-0.2172421475354751	-0.04683340548761864	0.3561172249365929	2.181650203141028	-0.2219988401110921	0.1287959496214278	-0.7853787147752249	2.181654197543225	2.181654197543246	-0.1744583527849206	0.1727268968875233	0.3522925565796175	0.1592539184345494	0.02337469518678321	-0.007365595367863385	-0.002680052169928005	-5.003431778807248e-05	0.001348279789958786	0.002407124502321654	-2.556462581011114e-05	3.385459015590742e-05	3.385459015635491e-05	0.0025392944843786	0.003883839004767487	-0.02444974516920508	-0.008803707635397891	-0.2513142893315479	-0.03662216599851715	-0.01617227175385435	-0.4314900446765103	0.09185232388180287	-0.01968053917763633	0.280336537579479	-0.02628788268530874	-17.35352975482922	-15.33429977630688	7.148402272684796	-2.085423203090536	-662.9039453099632	67.36186513034762	-0.06617503437410779	0.01865492735161247	0.008640344942937226	-0.01004540363782148	0.03421117969112698	0.1414432327757731	-0.01885011766358215	-0.006292569473596549	-0.00629256947359656	0.09870588626843664	-0.01585124103932702	0.077200830862205	0.08887112153927335	1.181991956978231e-10	1.808523204581732e-10	-7.585874304162803e-10	5.594129819333009e-10	8.596493787080757e-11	-9.152313615342847e-11	-1.170055240994421e-09
1.03	-0.217011663237278	-0.04690614726602946	0.3560908229789752	2.181649419060491	-0.2219841300117968	0.1288264013455158	-0.785379702335651	2.181654248466935	2.18165424846698	-0.1744282808518422	0.1727656214535244	0.3520516427640035	0.1591694114510361	0.02272656585223208	-0.007184529187675314	-0.002603720625823158	-8.502996860652816e-05	0.001546240482027736	0.003596959271101834	-0.0001506659302273506	-2.041224173618786e-05	-2.041224173557567e-05	0.003433355850273443	0.003918685130293717	-0.02376004282448788	-0.008186876120560653	-0.2515527382648358	-0.03685756467512685	-0.01616862699554482	-0.4312884069788629	0.09151492544089464	-0.01959075076537215	0.280538138883781	-0.02629457585716904	-17.45963466766327	-15.28940799719621	7.113289100741776	-1.8667293489657	-662.9279361861491	67.45508723173981	-0.06347163482029798	0.01756713946198729	0.006622333039530338	0.003036161707354541	0.005463826082983887	0.09481445369413458	-0.006147907387222306	-0.004505135231329337	-0.004505135231320345	0.07849574345321002	0.02179429132380135	0.06080128734650055	0.03471105602909341	1.765411038836568e-10	2.661455619436648e-10	-9.700365494677684e-10	8.815612221836587e-10	3.745646697156849e-11	-1.746646948679784e-10	-1.22577513829976e-09
1.04	-0.2167875281827911	-0.04697713144741654	0.3560650828915781	2.181648937584928	-0.2219688652431577	0.1288661635882444	-0.7853813024632111	2.181653854443291	2.181653854443314	-0.1743905204087604	0.1728064228311768	0.3518168152420501	0.1590883971605859	0.0221048464447014	-0.007014075963114085	-0.002547678125814974	1.048668102615987e-05	0.001459213658824093	0.004269228230483281	-0.0001480780568879548	-5.51348810026138e-05	-5.513488100183732e-05	0.004076996484296463	0.004299201334828077	-0.02323248643696966	-0.008105169022797225	-0.2517911871981207	-0.03709296335173058	-0.01616498223723668	-0.431086769281213	0.09117752699998746	-0.01950096235309858	0.2807397401880844	-0.02630105154814711	-17.56556578916326	-15.24430788217664	7.077939508124572	-1.652144584965038	-662.9509254626698	67.55087826871019	-0.06089304897002559	0.01653233622621498	0.004582536123663999	0.01605705645225551	-0.0227863233633893	0.0379300708960079	0.006687717887883179	-0.002383730948628733	-0.002383730948628753	0.04862173989410645	0.05328277476229355	0.04477163942239229	-0.0181537618754918	-3.455530210706271e-11	-1.284861853719571e-10	-9.388895640326128e-10	6.942346337049742e-10	1.197599044670545e-10	-4.232599968076548e-11	-1.510197921163162e-09
1.05	-0.2165690746842206	-0.04704644593833144	0.3560398512107657	2.181649609163026	-0.2219560715222741	0.1289098694080542	-0.7853826695808888	2.18165324990051	2.181653249900544	-0.1743476357955617	0.1728529880176335	0.3515865406435524	0.1590052787864207	0.0216310089928756	-0.006848802053528991	-0.002496990219579737	9.931562697380711e-05	0.001035313608677494	0.004376925254837545	-0.0001477092173120422	-5.890003563928351e-05	-5.890003563829357e-05	0.004460869972479401	0.005097739687636859	-0.02284030254799869	-0.008630866759341027	-0.2520783241129222	-0.03735316989396804	-0.01615784135950598	-0.4308504119216356	0.090794116301652	-0.01940897393492145	0.2809538896880013	-0.02630231220160687	-17.68582800211851	-15.19971646467347	7.041477242633176	-1.431722136292332	-662.9728162309497	67.63943082080827	-0.03385584532342336	0.01652798525590267	0.005562111469483363	0.001618705382125537	-0.06182421075005892	-0.01706203547105888	-0.006643093496702176	0.001658190481647739	0.001658190481670178	0.02741168499057408	0.105724964530433	0.03376128877590076	-0.08663199166387814	-2.54071655415798e-10	-5.38115588587611e-10	-9.001614503322507e-10	4.909869568285102e-10	2.061512140998749e-10	9.67464534408763e-11	-1.801767669200252e-09
1.06	-0.216354004910575	-0.04711410707676426	0.3560151764477353	2.181650433608894	-0.2219494432748747	0.128951801887369	-0.7853847039222328	2.181652813925824	2.181652813925837	-0.1743020841411288	0.1729100557074139	0.3513596517889729	0.1589135325924662	0.02142810145967336	-0.006683405466698204	-0.002436294569433821	4.106024156538218e-05	0.000226118962141573	0.003914560132144864	-0.0002815227972890859	-2.142126216530129e-05	-2.142126216409837e-05	0.004610404729070225	0.006399702000056512	-0.02255533765336976	-0.00983073298068732	-0.2523654610277208	-0.03761337643620797	-0.01615070048179059	-0.4306140545620563	0.09041070560331502	-0.0193169855167498	0.2811680391879187	-0.02630329961861966	-17.805780515399	-15.15459593681311	7.004388196891191	-1.214631542233552	-662.9949509381383	67.72768777581923	-0.006707065245311967	0.01655687167531032	0.006584084905900151	-0.01335980981923354	-0.09984524264125416	-0.07608235851341277	-0.02014876602240731	0.005865054673234543	0.005865054673234532	0.001753993575738414	0.1539675666844586	0.02332784055397488	-0.1529874588359913	1.679366761830146e-11	2.964113653484459e-11	-3.26972242564174e-10	2.508855358357644e-10	-5.680427129009823e-12	-1.715561449782742e-11	-4.843767829225493e-10
1.07	-0.2161407224964823	-0.04718024113378444	0.3559910696131484	2.181650858502819	-0.2219512221149167	0.1289877508859111	-0.7853883289556466	2.181652696961977	2.181652696961991	-0.1742559739153721	0.172980215878949	0.351135067327667	0.1588090558960348	0.02116136161594087	-0.006556210866843834	-0.00239242417483729	0.0001125923154784152	-0.0004857505260436218	0.003336024021983118	-0.0004231466183422385	-2.170154672340156e-05	-2.170154672226329e-05	0.004602935248230169	0.007477211369915767	-0.02238114396436966	-0.01091520434267099	-0.2518098317281234	-0.0374615378922433	-0.01612815427160363	-0.4308800104551065	0.09077156440239155	-0.01934196576207192	0.2806793274514631	-0.02631853799208253	-17.68310130436624	-15.14157289873933	6.999580055708276	-1.085407925110136	-662.7653112634209	67.80531427123447	-0.04671028083221652	0.008879964679684571	0.002185712397731598	0.02771090585695413	-0.04243736891943722	-0.03962157838399934	-0.008118599357583	-0.005934143887853036	-0.005934143887863542	-0.003303196365400432	0.06137449696570443	0.01152685466720667	-0.06376664825834033	3.137431223727677e-10	6.493864855050783e-10	2.746457468032529e-10	8.823809304918261e-12	-2.333749912760723e-10	-1.445137739822958e-10	9.185971158187169e-10
